<svg width="2816" height="512" viewBox="0 0 2816 512" fill="none" xmlns="http://www.w3.org/2000/svg">
<path d="M0 4C0 1.79086 1.79086 0 4 0H512V512H4C1.79086 512 0 510.209 0 508V4Z" fill="#34A853"/>
<rect x="76" y="44" width="360" height="32" rx="2" fill="white"/>
<rect x="76" y="436" width="360" height="32" rx="2" fill="white"/>
<circle cx="166" cy="166" r="64" fill="white"/>
<circle cx="346" cy="338" r="64" fill="white"/>
<circle cx="166" cy="338" r="64" fill="white"/>
<circle cx="346" cy="166" r="64" fill="white"/>
<rect width="512" height="512" transform="translate(512)" fill="#122D42"/>
<path d="M512.5 510.793V0.5H1022.79L512.5 510.793Z" fill="#34A853" stroke="#34A853"/>
<path d="M1024 0H2812C2814.21 0 2816 1.79086 2816 4V508C2816 510.209 2814.21 512 2812 512H1024V0Z" fill="#122D42"/>
<path d="M1269.99 371.8C1265.43 371.8 1261.59 370.24 1258.47 367.12C1255.35 364 1253.79 360.16 1253.79 355.6V133.48C1253.79 128.92 1255.35 125.08 1258.47 121.96C1261.59 118.6 1265.43 116.92 1269.99 116.92C1274.55 116.92 1278.39 118.6 1281.51 121.96C1284.87 125.08 1286.55 128.92 1286.55 133.48V229.24H1422.99V133.48C1422.99 128.92 1424.55 125.08 1427.67 121.96C1430.79 118.6 1434.63 116.92 1439.19 116.92C1443.75 116.92 1447.59 118.6 1450.71 121.96C1454.07 125.08 1455.75 128.92 1455.75 133.48V355.6C1455.75 360.16 1454.07 364 1450.71 367.12C1447.59 370.24 1443.75 371.8 1439.19 371.8C1434.63 371.8 1430.79 370.24 1427.67 367.12C1424.55 364 1422.99 360.16 1422.99 355.6V259.84H1286.55V355.6C1286.55 360.16 1284.87 364 1281.51 367.12C1278.39 370.24 1274.55 371.8 1269.99 371.8ZM1524.83 371.8C1520.03 371.8 1516.07 370.24 1512.95 367.12C1510.07 364 1508.63 360.16 1508.63 355.6C1508.63 353.68 1509.23 351.28 1510.43 348.4L1602.23 131.68C1604.15 127.36 1606.79 123.88 1610.15 121.24C1613.75 118.36 1618.07 116.92 1623.11 116.92H1626.71C1631.75 116.92 1635.95 118.36 1639.31 121.24C1642.91 123.88 1645.67 127.36 1647.59 131.68L1739.39 348.4C1740.59 351.28 1741.19 353.68 1741.19 355.6C1741.19 360.16 1739.63 364 1736.51 367.12C1733.63 370.24 1729.79 371.8 1724.99 371.8C1721.63 371.8 1718.51 370.96 1715.62 369.28C1712.99 367.36 1710.95 364.84 1709.51 361.72L1686.11 305.56H1563.71L1540.31 361.72C1538.87 364.84 1536.71 367.36 1533.83 369.28C1531.19 370.96 1528.19 371.8 1524.83 371.8ZM1576.31 275.68H1673.51L1624.91 158.68L1576.31 275.68ZM1873.34 373.6C1842.86 373.6 1814.3 367.84 1787.66 356.32C1784.78 355.12 1782.38 353.2 1780.46 350.56C1778.54 347.68 1777.58 344.68 1777.58 341.56C1777.58 337.48 1778.9 334 1781.54 331.12C1784.42 328 1788.02 326.44 1792.34 326.44C1794.74 326.44 1797.02 326.92 1799.18 327.88C1821.26 337.72 1844.9 342.64 1870.1 342.64C1912.1 342.64 1933.1 328.84 1933.1 301.24C1933.1 294.04 1930.34 288.04 1924.82 283.24C1919.54 278.44 1912.94 274.72 1905.02 272.08C1897.1 269.2 1885.82 265.84 1871.18 262C1851.74 256.96 1836.02 252.16 1824.02 247.6C1812.02 242.8 1801.7 235.72 1793.06 226.36C1784.42 217 1780.1 204.52 1780.1 188.92C1780.1 175.24 1783.7 162.88 1790.9 151.84C1798.1 140.56 1808.66 131.68 1822.58 125.2C1836.74 118.48 1853.66 115.12 1873.34 115.12C1899.74 115.12 1923.62 119.08 1944.98 127C1951.7 129.4 1955.06 134.2 1955.06 141.4C1955.06 145.24 1953.74 148.72 1951.1 151.84C1948.46 154.96 1944.98 156.52 1940.66 156.52C1939.22 156.52 1937.3 156.04 1934.9 155.08C1916.18 148.6 1896.86 145.36 1876.94 145.36C1857.98 145.36 1842.5 148.96 1830.5 156.16C1818.74 163.36 1812.86 173.44 1812.86 186.4C1812.86 195.04 1815.62 202.12 1821.14 207.64C1826.9 212.92 1833.98 217.12 1842.38 220.24C1851.02 223.12 1862.66 226.24 1877.3 229.6C1896.26 234.16 1911.5 238.72 1923.02 243.28C1934.78 247.84 1944.74 254.92 1952.9 264.52C1961.3 274.12 1965.5 287.08 1965.5 303.4C1965.5 316.84 1961.66 328.96 1953.98 339.76C1946.3 350.32 1935.5 358.6 1921.58 364.6C1907.66 370.6 1891.58 373.6 1873.34 373.6ZM2032.17 371.8C2027.61 371.8 2023.77 370.24 2020.65 367.12C2017.53 364 2015.97 360.16 2015.97 355.6V133.48C2015.97 128.92 2017.53 125.08 2020.65 121.96C2023.77 118.6 2027.61 116.92 2032.17 116.92C2036.73 116.92 2040.57 118.6 2043.69 121.96C2047.05 125.08 2048.73 128.92 2048.73 133.48V355.6C2048.73 360.16 2047.05 364 2043.69 367.12C2040.57 370.24 2036.73 371.8 2032.17 371.8ZM2134.83 370C2130.27 370 2126.43 368.44 2123.31 365.32C2120.19 362.2 2118.63 358.36 2118.63 353.8V135.28C2118.63 130.72 2120.19 126.88 2123.31 123.76C2126.43 120.4 2130.27 118.72 2134.83 118.72H2219.79C2245.47 118.72 2265.27 124.6 2279.19 136.36C2293.35 148.12 2300.43 163.96 2300.43 183.88C2300.43 197.8 2297.07 209.44 2290.35 218.8C2283.87 227.92 2275.47 234.76 2265.15 239.32C2279.55 243.88 2291.31 251.2 2300.43 261.28C2309.79 271.36 2314.47 284.08 2314.47 299.44C2314.47 321.52 2307.03 338.8 2292.15 351.28C2277.27 363.76 2253.87 370 2221.95 370H2134.83ZM2211.15 227.44C2232.51 227.44 2247.51 223.84 2256.15 216.64C2264.79 209.44 2269.11 199.36 2269.11 186.4C2269.11 175.12 2264.43 166.12 2255.07 159.4C2245.95 152.68 2233.35 149.32 2217.27 149.32H2151.39V227.44H2211.15ZM2218.71 339.4C2241.99 339.4 2258.43 335.8 2268.03 328.6C2277.87 321.4 2282.79 311.2 2282.79 298C2282.79 270.64 2261.55 256.96 2219.07 256.96H2151.39V339.4H2218.71ZM2469.76 373.6C2452.72 373.6 2436.28 370 2420.44 362.8C2404.6 355.6 2391.64 344.68 2381.56 330.04C2371.48 315.16 2366.44 297.04 2366.44 275.68V133.48C2366.44 128.92 2368 125.08 2371.12 121.96C2374.24 118.6 2378.08 116.92 2382.64 116.92C2387.2 116.92 2391.04 118.6 2394.16 121.96C2397.52 125.08 2399.2 128.92 2399.2 133.48V276.76C2399.2 291.16 2402.44 303.4 2408.92 313.48C2415.64 323.56 2424.4 331.12 2435.2 336.16C2446 341.2 2457.52 343.72 2469.76 343.72C2482 343.72 2493.52 341.2 2504.32 336.16C2515.12 331.12 2523.76 323.56 2530.24 313.48C2536.96 303.4 2540.32 291.16 2540.32 276.76V133.48C2540.32 128.92 2541.88 125.08 2545 121.96C2548.12 118.6 2551.96 116.92 2556.52 116.92C2561.08 116.92 2564.92 118.6 2568.04 121.96C2571.4 125.08 2573.08 128.92 2573.08 133.48V275.68C2573.08 297.04 2568.04 315.16 2557.96 330.04C2547.88 344.68 2534.92 355.6 2519.08 362.8C2503.24 370 2486.8 373.6 2469.76 373.6Z" fill="white"/>
</svg>
